HIERARCHY
ROOT hip
{
  OFFSET 0 0 0
  CHANNELS 6 Xposition Yposition Zposition Zrotation Yrotation Xrotation
  JOINT abdomen
  {
    OFFSET 0 20.6881 -0.73152
    CHANNELS 3 Zrotation Xrotation Yrotation
    JOINT chest
    {
      OFFSET 0 11.7043 -0.48768
      CHANNELS 3 Zrotation Xrotation Yrotation
      JOINT neck
      {
        OFFSET 0 22.1894 -2.19456
        CHANNELS 3 Zrotation Xrotation Yrotation
        JOINT head
        {
          OFFSET -0.24384 7.07133 1.2192
          CHANNELS 3 Zrotation Xrotation Yrotation
          JOINT leftEye
          {
            OFFSET 4.14528 8.04674 8.04672
            CHANNELS 3 Zrotation Xrotation Yrotation
            End Site
            {
              OFFSET 1 0 0
            }
          }
          JOINT rightEye
          {
            OFFSET -3.6576 8.04674 8.04672
            CHANNELS 3 Zrotation Xrotation Yrotation
            End Site
            {
              OFFSET 1 0 0
            }
          }
        }
      }
      JOINT rCollar
      {
        OFFSET -2.68224 19.2634 -4.8768
        CHANNELS 3 Zrotation Xrotation Yrotation
        JOINT rShldr
        {
          OFFSET -8.77824 -1.95073 1.46304
          CHANNELS 3 Zrotation Xrotation Yrotation
          JOINT rForeArm
          {
            OFFSET -28.1742 -1.7115 0.48768
            CHANNELS 3 Zrotation Xrotation Yrotation
            JOINT rHand
            {
              OFFSET -22.5879 0.773209 7.07136
              CHANNELS 3 Zrotation Xrotation Yrotation
              JOINT rThumb1
              {
                OFFSET -1.2192 -0.487915 3.41376
                CHANNELS 3 Zrotation Xrotation Yrotation
                JOINT rThumb2
                {
                  OFFSET -3.37035 -0.52449 3.41376
                  CHANNELS 3 Zrotation Xrotation Yrotation
                  End Site
                  {
                    OFFSET -1.78271 -1.18214 1.43049
                  }
                }
              }
              JOINT rIndex1
              {
                OFFSET -7.75947 0.938293 5.60832
                CHANNELS 3 Zrotation Xrotation Yrotation
                JOINT rIndex2
                {
                  OFFSET -2.54057 -0.884171 1.56538
                  CHANNELS 3 Zrotation Xrotation Yrotation
                  End Site
                  {
                    OFFSET -1.62519 -0.234802 1.16502
                  }
                }
              }
              JOINT rMid1
              {
                OFFSET -8.24714 1.18213 3.41376
                CHANNELS 3 Zrotation Xrotation Yrotation
                JOINT rMid2
                {
                  OFFSET -3.10165 -0.590103 1.0647
                  CHANNELS 3 Zrotation Xrotation Yrotation
                  End Site
                  {
                    OFFSET -2.48547 -0.328903 0.83742
                  }
                }
              }
              JOINT rRing1
              {
                OFFSET -8.82822 0.546677 1.51678
                CHANNELS 3 Zrotation Xrotation Yrotation
                JOINT rRing2
                {
                  OFFSET -2.60934 -0.819778 -0.0198488
                  CHANNELS 3 Zrotation Xrotation Yrotation
                  End Site
                  {
                    OFFSET -2.33842 -0.294052 0.168128
                  }
                }
              }
              JOINT rPinky1
              {
                OFFSET -8.27202 -0.0477905 -0.4584
                CHANNELS 3 Zrotation Xrotation Yrotation
                JOINT rPinky2
                {
                  OFFSET -1.82734 -0.647385 -0.700984
                  CHANNELS 3 Zrotation Xrotation Yrotation
                  End Site
                  {
                    OFFSET -1.69225 -0.51767 -0.607171
                  }
                }
              }
            }
          }
        }
      }
      JOINT lCollar
      {
        OFFSET 2.68224 19.2634 -4.8768
        CHANNELS 3 Zrotation Xrotation Yrotation
        JOINT lShldr
        {
          OFFSET 8.77824 -1.95073 1.46304
          CHANNELS 3 Zrotation Xrotation Yrotation
          JOINT lForeArm
          {
            OFFSET 28.1742 -1.7115 0.48768
            CHANNELS 3 Zrotation Xrotation Yrotation
            JOINT lHand
            {
              OFFSET 22.5879 0.773209 7.07136
              CHANNELS 3 Zrotation Xrotation Yrotation
              JOINT lThumb1
              {
                OFFSET 1.2192 -0.487915 3.41376
                CHANNELS 3 Zrotation Xrotation Yrotation
                JOINT lThumb2
                {
                  OFFSET 3.37035 -0.52449 3.41376
                  CHANNELS 3 Zrotation Xrotation Yrotation
                  End Site
                  {
                    OFFSET 1.78271 -1.18214 1.43049
                  }
                }
              }
              JOINT lIndex1
              {
                OFFSET 7.75947 0.938293 5.60832
                CHANNELS 3 Zrotation Xrotation Yrotation
                JOINT lIndex2
                {
                  OFFSET 2.54057 -0.884171 1.56538
                  CHANNELS 3 Zrotation Xrotation Yrotation
                  End Site
                  {
                    OFFSET 1.62519 -0.234802 1.16502
                  }
                }
              }
              JOINT lMid1
              {
                OFFSET 8.24714 1.18213 3.41376
                CHANNELS 3 Zrotation Xrotation Yrotation
                JOINT lMid2
                {
                  OFFSET 3.10165 -0.590103 1.0647
                  CHANNELS 3 Zrotation Xrotation Yrotation
                  End Site
                  {
                    OFFSET 2.48547 -0.328903 0.83742
                  }
                }
              }
              JOINT lRing1
              {
                OFFSET 8.82822 0.546677 1.51678
                CHANNELS 3 Zrotation Xrotation Yrotation
                JOINT lRing2
                {
                  OFFSET 2.60934 -0.819778 -0.0198488
                  CHANNELS 3 Zrotation Xrotation Yrotation
                  End Site
                  {
                    OFFSET 2.33842 -0.294052 0.168128
                  }
                }
              }
              JOINT lPinky1
              {
                OFFSET 8.27202 -0.0477905 -0.4584
                CHANNELS 3 Zrotation Xrotation Yrotation
                JOINT lPinky2
                {
                  OFFSET 1.82734 -0.647385 -0.700984
                  CHANNELS 3 Zrotation Xrotation Yrotation
                  End Site
                  {
                    OFFSET 1.69225 -0.51767 -0.607171
                  }
                }
              }
            }
          }
        }
      }
    }
  }
  JOINT rButtock
  {
    OFFSET -8.77824 4.35084 1.2192
    CHANNELS 3 Zrotation Xrotation Yrotation
    JOINT rThigh
    {
      OFFSET 0 -1.70687 -2.19456
      CHANNELS 3 Zrotation Xrotation Yrotation
      JOINT rShin
      {
        OFFSET 0 -36.8199 0.73152
        CHANNELS 3 Zrotation Xrotation Yrotation
        JOINT rFoot
        {
          OFFSET 0.73152 -45.1104 -5.12064
          CHANNELS 3 Zrotation Xrotation Yrotation
          End Site
          {
            OFFSET -1.1221 -3.69964 12.103
          }
        }
      }
    }
  }
  JOINT lButtock
  {
    OFFSET 8.77824 4.35084 1.2192
    CHANNELS 3 Zrotation Xrotation Yrotation
    JOINT lThigh
    {
      OFFSET 0 -1.70687 -2.19456
      CHANNELS 3 Zrotation Xrotation Yrotation
      JOINT lShin
      {
        OFFSET 0 -36.8199 0.73152
        CHANNELS 3 Zrotation Xrotation Yrotation
        JOINT lFoot
        {
          OFFSET -0.73152 -45.1104 -5.12064
          CHANNELS 3 Zrotation Xrotation Yrotation
          End Site
          {
            OFFSET 1.1221 -3.69964 12.103
          }
        }
      }
    }
  }
}
MOTION
Frames:	4
Frame Time:	0.00833333
56.4937 83.0059 120.459 178.994 -3.4653 -147.252 -6.72169 -29.1198 -4.71801 2.76776 12.0153 -1.6052 10.0222 7.72019 -6.45398 -23.6073 -29.8637 -22.1571 -0.0 0.0 0.0 -0.0 0.0 0.0 -9.95381e-15 -1.63104e-13 8.01258e-14 82.976 18.1462 -5.54901 -16.2729 -8.9437 30.2498 -0.0148204 -3.47801 -0.489408 5.12903e-10 -1.1316e-09 2.03217e-09 8.86174e-10 -1.95178e-09 3.51884e-09 5.12905e-10 -1.13161e-09 2.03217e-09 7.73091 5.47488 0.417314 5.12902e-10 -1.1316e-09 2.03217e-09 2.90554 0.965183 0.102902 5.12907e-10 -1.1316e-09 2.03217e-09 10.2786 0.731801 0.0259123 5.12896e-10 -1.1316e-09 2.03218e-09 2.22167 -0.733487 -0.20892 -1.00775e-14 -1.63103e-13 7.99208e-14 -69.8122 37.8446 -1.88061 13.4647 -6.53048 -24.4832 0.00227386 1.42059 -0.199688 1.72943e-09 -6.46921e-11 -1.67945e-09 2.98479e-09 -1.15885e-10 -2.91018e-09 1.72943e-09 -6.46933e-11 -1.67943e-09 -7.73091 5.47488 -0.417314 1.72943e-09 -6.46953e-11 -1.67945e-09 -2.90554 0.965183 -0.102902 1.72943e-09 -6.46942e-11 -1.67944e-09 -10.2786 0.731801 -0.0259123 1.72944e-09 -6.4691e-11 -1.67945e-09 -2.22167 -0.733487 0.20892 -2.03217e-16 0.0 -3.88251e-19 4.52637 -41.3736 13.3183 -0.0267565 19.9512 0.437568 -4.68512 -18.5256 -11.3022 2.03217e-16 0.0 3.88251e-19 -4.03763 -40.7085 -16.8194 0.0851704 18.7959 -0.282175 1.35519 -7.8782 4.35564
56.5158 82.8747 120.637 178.844 -3.7919 -147.036 -6.71096 -28.7044 -4.84454 2.80836 11.7978 -1.63942 9.69574 7.7045 -6.59563 -23.3312 -29.9867 -22.3265 -0.0 0.0 0.0 -0.0 0.0 0.0 5.95676e-14 2.86109e-14 1.02707e-13 82.856 18.2698 -5.70203 -16.3707 -9.03644 30.4584 -0.0159588 -3.60754 -0.507682 -3.49236e-10 6.67761e-11 1.20345e-09 -6.03346e-10 1.18552e-10 2.08485e-09 -3.49233e-10 6.67749e-11 1.20344e-09 7.73091 5.47488 0.417314 -3.49237e-10 6.67755e-11 1.20345e-09 2.90554 0.965183 0.102902 -3.49231e-10 6.67763e-11 1.20345e-09 10.2786 0.731801 0.0259123 -3.49244e-10 6.67787e-11 1.20346e-09 2.22167 -0.733487 -0.20892 5.93752e-14 2.86127e-14 1.02478e-13 -69.696 37.6542 -1.90763 13.4505 -6.51943 -24.4549 0.00336133 1.68787 -0.23728 4.08309e-11 -5.23135e-10 -1.18158e-09 6.87855e-11 -9.06249e-10 -2.04556e-09 4.08249e-11 -5.23138e-10 -1.18157e-09 -7.73091 5.47488 -0.417314 4.08221e-11 -5.23142e-10 -1.18159e-09 -2.90554 0.965183 -0.102902 4.08293e-11 -5.23139e-10 -1.18158e-09 -10.2786 0.731801 -0.0259123 4.0836e-11 -5.23137e-10 -1.18158e-09 -2.22167 -0.733487 0.20892 -2.03217e-16 0.0 -3.88251e-19 4.60859 -42.4466 13.3457 -0.032815 21.1809 0.46842 -4.9021 -18.9272 -11.6427 2.03217e-16 0.0 3.88251e-19 -4.69575 -42.053 -17.4944 0.0988198 20.5809 -0.31517 1.41798 -8.43344 4.43692
56.5497 82.6952 120.856 178.817 -4.0559 -146.705 -6.62458 -28.3059 -4.88816 2.79581 11.5154 -1.65296 9.44129 7.68606 -6.68281 -23.0354 -30.0772 -22.3873 -0.0 0.0 0.0 -0.0 0.0 0.0 1.0045e-13 1.49485e-13 1.11816e-13 82.7778 18.3597 -5.87442 -16.4576 -9.11936 30.6446 -0.0168006 -3.69791 -0.520437 -8.85075e-10 8.74875e-10 6.11436e-10 -1.52923e-09 1.51462e-09 1.06031e-09 -8.85072e-10 8.74875e-10 6.11423e-10 7.73091 5.47488 0.417314 -8.85076e-10 8.74875e-10 6.11433e-10 2.90554 0.965183 0.102902 -8.85069e-10 8.74875e-10 6.11431e-10 10.2786 0.731801 0.0259123 -8.85083e-10 8.74878e-10 6.11439e-10 2.22167 -0.733487 -0.20892 1.00229e-13 1.49486e-13 1.11568e-13 -69.5828 37.4748 -1.89796 13.4341 -6.50678 -24.4224 0.00444348 1.90299 -0.267547 -1.06895e-09 -7.78244e-10 -7.2864e-10 -1.84746e-09 -1.3457e-09 -1.25956e-09 -1.06896e-09 -7.78248e-10 -7.28627e-10 -7.73091 5.47488 -0.417314 -1.06896e-09 -7.78254e-10 -7.28649e-10 -2.90554 0.965183 -0.102902 -1.06895e-09 -7.7825e-10 -7.28638e-10 -10.2786 0.731801 -0.0259123 -1.06895e-09 -7.78248e-10 -7.28643e-10 -2.22167 -0.733487 0.20892 -2.03217e-16 0.0 -3.88251e-19 4.75712 -43.6914 13.3313 -0.041571 22.58 0.502704 -5.08685 -19.385 -11.8621 2.03217e-16 0.0 3.88251e-19 -5.32759 -43.5495 -18.0693 0.113828 22.4859 -0.350169 1.46815 -8.97305 4.46255
56.581 82.4502 121.2 178.86 -4.0771 -146.15 -6.4322 -27.9514 -4.81784 2.69969 11.136 -1.63813 9.29633 7.66102 -6.69144 -22.7244 -30.1221 -22.2987 -0.0 0.0 0.0 -0.0 0.0 0.0 1.02696e-13 1.96361e-13 1.04911e-13 82.7597 18.3794 -6.07318 -16.5208 -9.17983 30.7809 -0.0170577 -3.72408 -0.524132 -1.00119e-09 1.31855e-09 2.57241e-10 -1.73032e-09 2.2812e-09 4.46967e-10 -1.00119e-09 1.31855e-09 2.57229e-10 7.73091 5.47488 0.417314 -1.00119e-09 1.31855e-09 2.5724e-10 2.90554 0.965183 0.102902 -1.00119e-09 1.31855e-09 2.57238e-10 10.2786 0.731801 0.0259123 -1.0012e-09 1.31855e-09 2.57248e-10 2.22167 -0.733487 -0.20892 1.02513e-13 1.96362e-13 1.04645e-13 -69.4731 37.3076 -1.82819 13.4082 -6.48666 -24.3708 0.00526488 2.05881 -0.289474 -1.53164e-09 -7.11092e-10 -1.38622e-10 -2.64546e-09 -1.22857e-09 -2.37214e-10 -1.53164e-09 -7.11098e-10 -1.38607e-10 -7.73091 5.47488 -0.417314 -1.53165e-09 -7.11103e-10 -1.3863e-10 -2.90554 0.965183 -0.102902 -1.53164e-09 -7.111e-10 -1.38621e-10 -10.2786 0.731801 -0.0259123 -1.53163e-09 -7.11098e-10 -1.38627e-10 -2.22167 -0.733487 0.20892 -2.03217e-16 0.0 -3.88251e-19 4.98253 -45.189 13.2449 -0.0548424 24.2117 0.542182 -5.22237 -19.918 -11.9147 2.03217e-16 0.0 3.88251e-19 -5.91392 -45.2793 -18.5228 0.130445 24.5622 -0.388611 1.50986 -9.49197 4.45525
